# xmcd
#
# Track frame offsets: 
#        150
#        17406
#        35150
#        49871
#        69148
#        85817
#        99480
#        115636
#        130802
#        144534
#        160501
#        178888
#        194177
#        210159
#
# Disc length: 2989 seconds
#
# Revision: 0
# Processed by: cddbd v1.5.2PL0 Copyright (c) Steve Scherf et al.
# Submitted via: ExactAudioCopy v1.0b3
#
DISCID=b80bab0e
DTITLE=Beth Navaro - Sactuary
DYEAR=2006
DGENRE=Country
TTITLE0=Back where I belong
TTITLE1=Cherrywood
TTITLE2=High wind on the water
TTITLE3=Just passing through
TTITLE4=Another love song
TTITLE5=You are the reason
TTITLE6=Riverblind
TTITLE7=Opposites attract
TTITLE8=Polly
TTITLE9=Count on me
TTITLE10=Life behind the wheel
TTITLE11=Line Dancer
TTITLE12=Words
TTITLE13=Sanctuary
EXTD=
EXTT0=
EXTT1=
EXTT2=
EXTT3=
EXTT4=
EXTT5=
EXTT6=
EXTT7=
EXTT8=
EXTT9=
EXTT10=
EXTT11=
EXTT12=
EXTT13=
PLAYORDER=
